<svg width="228.000000pt" height="208.000000pt" viewBox="0 0 228.000000 208.000000" xmlns="http://www.w3.org/2000/svg">
  <g transform="translate(0.000000,208.000000) scale(0.100000,-0.100000)" fill="#fefefe" stroke="none">
    <path d="M0 1040 l0 -1040 1140 0 1140 0 0 1040 0 1040 -1140 0 -1140 0 0
-1040z m1095 822 c39 -18 80 -42 92 -54 l22 -20 52 12 51 13 58 -6 58 -6 11
13 c7 8 35 24 63 36 l51 22 59 0 60 0 63 -31 64 -32 31 -37 c16 -20 38 -56 47
-79 10 -24 21 -43 26 -43 4 0 7 -29 7 -65 0 -36 -4 -65 -8 -65 -5 0 -14 -18
-21 -39 l-11 -39 -45 -50 c-24 -27 -58 -55 -75 -62 -16 -7 -30 -18 -30 -25 l0
-13 33 -7 c63 -14 163 -58 204 -92 l42 -34 33 -67 33 -67 3 -76 4 -76 -16 -64
c-9 -35 -36 -104 -61 -154 -47 -94 -93 -154 -206 -267 l-66 -66 -7 -33 c-9
-44 -52 -98 -92 -115 l-33 -14 -442 0 -442 0 -43 25 -42 25 -21 43 -21 43 0
307 0 307 -40 0 c-23 0 -53 6 -68 14 -39 21 -88 76 -96 110 l-7 28 12 36 c7
20 18 42 24 49 12 11 35 137 35 188 l0 24 -27 20 c-48 36 -65 55 -84 96 l-19
40 0 51 0 52 28 53 28 54 39 27 c22 15 65 35 95 44 l55 17 62 -13 63 -12 37
30 c41 31 92 60 133 73 14 5 59 7 100 6 l75 -2 70 -33z" />
    <path d="M821 1838 l-54 -21 -42 -42 -42 -42 -28 15 -29 15 -62 0 -63 0 -45
-27 c-26 -15 -46 -31 -46 -35 0 -5 -11 -19 -25 -33 l-24 -24 -7 -42 c-3 -22
-3 -58 1 -78 l7 -38 59 -58 59 -59 0 -39 c0 -52 -17 -132 -42 -202 l-20 -58 6
-34 7 -35 30 -25 31 -26 38 0 c51 0 83 15 103 50 21 35 21 68 2 117 -22 56
-45 162 -45 208 l0 40 49 16 50 15 36 -37 c20 -21 58 -48 83 -61 l47 -23 85 1
85 1 36 16 c20 9 60 36 90 60 l54 44 30 -13 c35 -15 148 -18 174 -5 l17 10 59
-30 58 -29 64 0 64 0 37 16 c47 19 98 68 125 119 l21 40 1 70 0 71 -26 49 -25
50 -42 32 -42 31 -56 13 -56 13 -54 -12 -54 -11 -43 -30 -42 -30 -40 9 c-45
10 -107 4 -147 -16 l-27 -14 -14 20 c-19 28 -84 70 -140 92 l-47 18 -63 -1
-62 0 -54 -21z m-394 -280 l-4 -23 0 40 c-1 22 1 32 4 23 2 -10 2 -28 0 -40z
m34 -65 l14 -18 -17 14 c-10 7 -18 15 -18 17 0 8 8 3 21 -13z m16 -435 l-5
-13 -1 19 c-1 11 2 17 5 13 3 -3 4 -12 1 -19z" />
    <path d="M641 1351 l-14 -9 6 -75 c4 -42 16 -100 27 -129 11 -29 20 -66 20
-81 0 -15 -9 -46 -20 -68 l-21 -40 3 -340 3 -341 28 -24 28 -24 454 0 453 0
26 31 26 31 0 27 0 26 80 80 c45 44 102 112 128 150 26 39 52 73 59 78 6 4 26
44 43 90 l32 82 5 81 6 80 -18 60 -17 59 -41 39 c-51 48 -129 85 -199 93 -29
3 -59 10 -65 16 -7 5 -13 20 -13 33 l0 24 -55 0 -55 0 0 -400 0 -401 -15 -29
c-9 -16 -29 -36 -45 -45 l-29 -15 -306 0 -306 0 -29 15 c-16 9 -36 29 -45 45
l-15 29 0 399 0 398 -33 32 c-33 32 -60 39 -86 23z m1152 -283 l39 -19 20 -46
20 -46 -5 -47 c-12 -97 -73 -228 -144 -308 l-33 -37 -15 19 -15 20 0 232 0
233 15 15 16 15 32 -6 c18 -3 49 -15 70 -25z m-259 -734 l17 -6 -12 -14 -11
-14 -374 0 -373 0 -6 10 c-3 6 -3 15 0 20 l6 10 369 0 c202 0 376 -3 384 -6z" />
    <path d="M1720 875 l0 -165 14 0 13 0 29 63 28 62 4 82 4 82 -33 20 c-19 12
-40 21 -46 21 l-13 0 0 -165z" />
    <path d="M815 1188 c-3 -7 -4 -148 -3 -313 l3 -300 35 0 35 0 0 310 0 310 -33
3 -32 3 -5 -13z" />
  </g>
  <g transform="translate(0.000000,208.000000) scale(0.100000,-0.100000)" fill="#0c0c0c" stroke="none">
    <path d="M840 1901 c-40 -13 -92 -41 -131 -72 l-36 -29 -56 12 -55 12 -54 -12
c-30 -7 -76 -27 -103 -45 l-49 -32 -28 -54 -28 -53 0 -62 0 -61 19 -40 c19
-40 31 -55 85 -98 l29 -23 -13 -87 c-7 -48 -18 -93 -25 -100 -6 -7 -18 -30
-24 -50 l-13 -38 7 -36 7 -36 31 -34 c42 -46 77 -63 127 -63 l40 0 0 -307 0
-307 21 -43 21 -43 42 -25 43 -25 452 0 452 0 33 14 c40 17 83 71 92 115 l7
33 66 66 c113 113 159 173 206 267 25 50 52 119 61 154 l16 64 -4 86 -3 87
-33 66 -33 67 -42 34 c-42 34 -141 78 -207 92 l-34 7 36 19 c48 25 115 103
130 150 6 22 15 39 20 39 4 0 8 34 8 75 0 41 -3 75 -7 75 -5 0 -16 19 -26 43
-9 23 -31 59 -47 79 l-31 37 -65 32 -64 32 -68 0 -67 0 -40 -17 c-22 -9 -51
-24 -65 -34 l-25 -16 -65 2 c-36 2 -81 -2 -99 -7 l-35 -11 -20 19 c-12 11 -52
35 -91 53 l-70 33 -85 2 c-47 1 -96 -1 -110 -6z m197 -69 c58 -22 117 -62 144
-96 l20 -25 34 20 34 21 54 0 c29 0 63 -5 75 -11 l22 -12 27 26 c35 32 79 52
130 61 l40 6 58 -16 57 -17 43 -44 44 -43 17 -57 16 -58 -6 -39 c-13 -82 -75
-162 -148 -192 -21 -9 -61 -16 -90 -16 l-53 0 -51 24 c-28 13 -55 29 -58 35
l-7 11 -29 -15 -29 -15 -53 0 -53 0 -35 18 -35 17 -58 -47 c-32 -27 -75 -56
-95 -65 l-37 -16 -75 -1 -75 0 -47 22 c-25 13 -65 42 -88 66 l-42 43 -36 -19
c-20 -10 -44 -18 -54 -18 l-18 0 0 -52 c1 -61 11 -115 42 -211 l22 -68 -18
-33 c-20 -37 -52 -56 -96 -56 l-28 0 -30 25 c-17 14 -33 38 -37 54 l-6 29 16
38 c23 54 45 166 45 224 l0 49 -59 58 -58 58 -8 34 c-10 47 3 102 31 130 13
13 24 27 24 32 0 4 20 20 44 34 l45 26 52 1 51 0 38 -17 38 -17 44 45 45 44
54 21 54 21 52 0 53 1 47 -18z m-320 -514 l33 -32 0 -398 0 -399 15 -29 c9
-16 29 -36 45 -45 l29 -15 316 0 316 0 29 15 c16 9 36 29 45 45 l15 29 0 401
0 400 45 0 45 0 0 -24 c0 -13 6 -28 13 -33 6 -6 36 -13 65 -16 70 -8 148 -45
199 -93 l41 -39 17 -60 18 -59 -6 -71 -5 -71 -32 -82 c-17 -45 -37 -85 -43
-89 -7 -5 -33 -39 -59 -78 -26 -38 -83 -106 -128 -150 l-80 -80 0 -26 0 -27
-26 -31 -26 -31 -443 0 -444 0 -28 24 -28 24 -3 331 -3 330 21 40 c25 50 25
102 0 168 -10 28 -22 81 -26 118 l-7 67 14 9 c8 5 18 9 24 9 5 0 24 -14 42
-32z m158 -433 l0 -300 -25 0 -25 0 -3 290 c-1 159 0 296 3 303 l5 13 22 -3
23 -3 0 -300z" />
    <path d="M483 1691 l-42 -19 -15 -31 c-33 -63 -12 -147 44 -176 34 -18 40 -18
40 -5 0 6 -16 24 -35 41 l-35 31 0 43 0 43 24 23 c13 13 39 28 58 35 33 11 41
27 16 31 -7 2 -32 -6 -55 -16z" />
    <path d="M460 1070 c0 -29 21 -70 37 -70 15 0 18 26 3 35 -5 3 -10 17 -10 31
l0 24 -15 0 -15 0 0 -20z" />
    <path d="M1666 1095 l-16 -16 0 -243 0 -242 13 -18 13 -18 19 3 c11 2 36 27
57 54 74 96 128 232 128 320 0 22 -9 59 -19 82 l-19 42 -39 19 c-21 11 -57 23
-79 26 l-41 7 -17 -16z m129 -176 l0 -74 -32 -65 -31 -65 -1 158 -1 159 33
-19 32 -19 0 -75z" />
    <path d="M760 335 l-12 -15 12 -15 13 -15 385 2 385 3 11 18 11 18 -15 9 -15
10 -381 0 -382 0 -12 -15z" />
  </g>
  <g transform="translate(0.000000,208.000000) scale(0.100000,-0.100000)" fill="#875b3d" stroke="none" />
  <g transform="translate(0.000000,208.000000) scale(0.100000,-0.100000)" fill="#000000" stroke="none" />
  <g transform="translate(0.000000,208.000000) scale(0.100000,-0.100000)" fill="#000000" stroke="none" />
  <g transform="translate(0.000000,208.000000) scale(0.100000,-0.100000)" fill="#000000" stroke="none" />
  <g transform="translate(0.000000,208.000000) scale(0.100000,-0.100000)" fill="#000000" stroke="none" />
  <g transform="translate(0.000000,208.000000) scale(0.100000,-0.100000)" fill="#000000" stroke="none" />
  <g transform="translate(0.000000,208.000000) scale(0.100000,-0.100000)" fill="#000000" stroke="none" />
  <g transform="translate(0.000000,208.000000) scale(0.100000,-0.100000)" fill="#000000" stroke="none" />
  <g transform="translate(0.000000,208.000000) scale(0.100000,-0.100000)" fill="#ffffff" stroke="none" />
  <g transform="translate(0.000000,208.000000) scale(0.100000,-0.100000)" fill="#00ffff" stroke="none" />
  <g transform="translate(0.000000,208.000000) scale(0.100000,-0.100000)" fill="#ff00ff" stroke="none" />
  <g transform="translate(0.000000,208.000000) scale(0.100000,-0.100000)" fill="#0000ff" stroke="none" />
  <g transform="translate(0.000000,208.000000) scale(0.100000,-0.100000)" fill="#ffff00" stroke="none" />
  <g transform="translate(0.000000,208.000000) scale(0.100000,-0.100000)" fill="#00ff00" stroke="none" />
  <g transform="translate(0.000000,208.000000) scale(0.100000,-0.100000)" fill="#ff0000" stroke="none" />
  <g transform="translate(0.000000,208.000000) scale(0.100000,-0.100000)" fill="#c0c0c0" stroke="none" />
  <g transform="translate(0.000000,208.000000) scale(0.100000,-0.100000)" fill="#808080" stroke="none" />
  <g transform="translate(0.000000,208.000000) scale(0.100000,-0.100000)" fill="#008080" stroke="none" />
  <g transform="translate(0.000000,208.000000) scale(0.100000,-0.100000)" fill="#800080" stroke="none" />
  <g transform="translate(0.000000,208.000000) scale(0.100000,-0.100000)" fill="#000080" stroke="none" />
  <g transform="translate(0.000000,208.000000) scale(0.100000,-0.100000)" fill="#808000" stroke="none" />
  <g transform="translate(0.000000,208.000000) scale(0.100000,-0.100000)" fill="#000000" stroke="none" />
  <g transform="translate(0.000000,208.000000) scale(0.100000,-0.100000)" fill="#000000" stroke="none" />
</svg>