<svg width="228.000000pt" height="208.000000pt" viewBox="0 0 228.000000 208.000000" xmlns="http://www.w3.org/2000/svg">
  <g transform="translate(0.000000,208.000000) scale(0.100000,-0.100000)" fill="#fefefe" stroke="none">
    <path d="M0 1040 l0 -1040 1140 0 1140 0 0 1040 0 1040 -1140 0 -1140 0 0
-1040z m1001 875 c24 -9 74 -34 110 -56 l67 -40 46 12 47 12 59 -6 58 -6 11
13 c7 8 35 24 63 36 l51 22 58 0 58 0 53 -24 c29 -14 76 -43 104 -65 l50 -40
30 -59 c16 -33 32 -60 37 -62 10 -5 9 -132 -1 -132 -5 0 -14 -19 -21 -42 l-13
-41 -59 -60 c-32 -32 -59 -62 -59 -66 0 -4 17 -13 39 -19 21 -7 55 -23 75 -37
20 -14 40 -25 43 -25 3 0 25 -16 49 -35 l43 -36 33 -67 33 -67 3 -76 4 -76
-16 -64 c-9 -35 -36 -104 -61 -154 -47 -94 -93 -154 -206 -267 l-66 -66 -7
-33 c-9 -44 -52 -98 -92 -115 l-33 -14 -445 0 -444 0 -60 40 -61 41 -20 42
-21 43 0 292 0 292 -23 0 c-29 0 -138 70 -159 102 -8 13 -18 37 -22 54 l-7 31
21 54 c11 30 25 94 32 142 l12 88 -44 42 c-24 23 -51 60 -61 82 l-19 40 0 51
0 50 26 52 c14 29 42 65 61 81 l36 30 63 17 64 17 59 -13 60 -13 38 30 c41 33
94 62 133 74 14 4 53 8 86 8 l61 1 44 -15z" />
    <path d="M821 1838 l-54 -21 -42 -42 -42 -42 -24 13 c-25 12 -79 19 -138 16
l-33 -2 5 -19 5 -20 -28 -6 c-16 -3 -40 -18 -54 -32 l-26 -26 0 -53 0 -54 14
0 15 0 4 33 4 32 1 -44 2 -45 23 -24 22 -25 -42 29 c-23 16 -45 37 -48 47 -4
9 -13 17 -21 17 l-14 0 0 -19 c0 -39 22 -77 76 -128 l54 -53 0 -42 c-1 -24 -8
-72 -16 -108 -8 -36 -18 -86 -21 -112 -3 -27 -10 -48 -15 -48 l-10 0 7 -27
c10 -42 24 -53 66 -53 50 0 82 15 102 50 21 35 21 68 2 117 -22 56 -45 162
-45 208 l0 40 51 16 51 16 51 -48 c29 -27 68 -55 87 -61 l35 -13 80 1 80 1 39
17 c21 9 59 37 86 62 l47 44 36 -15 36 -15 61 0 c34 0 69 4 79 9 l17 10 59
-30 58 -29 64 0 64 0 37 16 c47 19 98 68 123 117 11 21 23 60 26 86 l5 48 -16
56 -16 56 -33 34 -32 34 -59 14 -58 13 -54 -12 -54 -11 -43 -30 -42 -30 -40 9
c-44 10 -107 4 -144 -15 l-24 -12 -33 19 c-18 10 -39 30 -48 43 l-15 23 -56
21 -56 21 -62 -1 -62 0 -54 -21z m-341 -778 l0 -20 -15 0 c-8 0 -15 2 -15 5 0
6 23 34 28 35 1 0 2 -9 2 -20z" />
    <path d="M641 1351 l-14 -9 6 -75 c4 -42 16 -100 27 -129 11 -29 20 -66 20
-81 0 -15 -9 -45 -20 -67 l-20 -39 0 -325 0 -325 10 -25 10 -26 454 0 454 0
26 31 26 31 0 25 0 26 93 96 93 96 52 85 c29 46 52 90 52 97 0 7 4 13 9 13 17
0 43 94 48 176 l6 80 -17 57 -16 56 -33 32 c-42 41 -106 69 -172 76 l-54 6
-37 33 -37 34 -28 0 -29 0 0 -400 0 -401 -15 -29 c-9 -16 -29 -36 -45 -45
l-29 -15 -309 0 -309 0 -47 31 c-26 17 -53 44 -61 60 l-15 28 0 399 0 399 -18
16 c-21 19 -40 21 -61 8z m1110 -252 c19 -10 49 -30 66 -46 l31 -29 13 -43 13
-43 -13 -60 c-7 -33 -23 -84 -36 -113 -26 -59 -93 -163 -120 -185 l-17 -14
-13 17 c-7 9 -17 17 -23 17 -6 0 -16 9 -22 19 l-10 20 0 230 0 230 15 15 16
15 32 -6 c18 -3 48 -14 68 -24z m-241 -749 c13 -11 27 -20 33 -20 l9 0 -12
-15 -12 -15 -372 0 -371 1 -29 23 -29 24 7 11 7 11 373 0 373 0 23 -20z" />
    <path d="M1720 930 l0 -110 13 0 14 0 11 39 c7 21 12 68 12 104 l0 65 -16 6
c-9 3 -20 6 -25 6 l-9 0 0 -110z" />
    <path d="M817 1193 c-4 -3 -7 -139 -7 -300 l0 -294 18 3 17 3 3 298 2 297 -13
0 c-8 0 -17 -3 -20 -7z" />
  </g>
  <g transform="translate(0.000000,208.000000) scale(0.100000,-0.100000)" fill="#c16019" stroke="none">
    <path d="M800 1931 c-39 -12 -91 -41 -131 -72 l-36 -29 -57 12 -57 12 -67 -17
-67 -18 -35 -28 c-19 -15 -47 -52 -63 -81 l-27 -52 0 -62 0 -61 19 -40 c10
-22 37 -59 61 -81 l43 -42 -12 -79 c-6 -44 -21 -104 -32 -134 l-21 -54 6 -38
c9 -51 30 -81 83 -117 l44 -30 33 0 34 0 6 -16 c3 -9 6 -144 6 -302 l0 -286
20 -41 20 -42 44 -31 44 -32 456 0 457 0 33 14 c41 17 83 71 93 117 l6 34 54
48 c29 27 76 80 105 118 28 38 54 69 58 69 14 0 100 183 115 245 l15 59 0 88
0 87 -21 58 -22 58 -40 38 c-22 20 -44 37 -48 37 -5 0 -25 11 -45 25 -20 14
-54 30 -75 37 -21 6 -36 15 -33 19 3 5 -4 9 -15 9 l-19 0 57 58 57 57 17 49
17 50 0 75 0 76 -24 51 -23 50 -51 37 c-27 21 -72 47 -98 59 l-49 21 -65 0
-65 0 -40 -17 c-22 -9 -51 -24 -65 -34 l-25 -16 -65 2 c-36 2 -79 -1 -97 -7
l-32 -9 -48 31 c-26 17 -73 41 -103 54 l-55 23 -75 -1 c-41 0 -86 -4 -100 -8z
m220 -92 l80 -30 20 -29 c11 -16 29 -32 40 -35 l19 -6 30 15 c36 19 102 21
147 4 l32 -11 33 32 34 31 52 16 52 15 38 -7 c20 -4 61 -17 90 -30 l52 -23 25
-38 c13 -21 30 -58 36 -83 l12 -44 -6 -39 c-13 -81 -75 -161 -148 -191 -21 -9
-61 -16 -90 -16 l-53 0 -51 24 c-28 13 -55 29 -58 35 l-7 11 -29 -15 -29 -15
-53 0 -54 0 -38 19 -37 20 -55 -50 c-29 -27 -71 -56 -91 -65 l-38 -17 -70 -1
c-38 0 -86 5 -105 12 -19 7 -61 36 -93 66 l-57 54 -37 -19 c-21 -11 -45 -19
-55 -19 l-18 0 0 -52 c1 -61 11 -115 42 -211 l22 -68 -18 -33 c-20 -37 -52
-56 -95 -56 l-28 0 -19 21 -19 22 28 -5 27 -5 0 13 c0 22 -12 44 -21 38 l-9
-5 0 30 0 31 -16 0 -15 0 5 18 c19 62 36 155 36 202 l0 56 -53 51 -54 52 -12
41 -12 40 7 35 c10 57 19 48 16 -17 l-4 -60 10 6 c6 3 13 -2 17 -11 3 -10 24
-30 45 -45 68 -47 80 -32 29 32 -18 22 -36 37 -40 34 -5 -3 -9 15 -9 39 l0 45
24 23 c13 13 38 28 55 34 34 11 40 25 18 39 l-15 10 -51 -26 c-28 -14 -51 -22
-51 -18 0 5 22 20 50 34 l50 26 41 0 c23 0 62 -7 88 -17 l47 -16 46 45 45 45
54 21 c30 12 73 21 97 21 l43 1 79 -31z m-327 -508 l17 -14 0 -399 0 -399 14
-27 c8 -15 28 -37 45 -49 l30 -23 322 0 321 0 28 16 c15 9 35 29 44 44 l16 28
0 401 0 401 34 0 35 0 6 -19 c9 -29 29 -41 93 -56 81 -19 160 -57 199 -94 l33
-32 16 -56 17 -57 -6 -71 c-6 -73 -33 -165 -48 -165 -5 0 -9 -6 -9 -13 0 -7
-23 -51 -52 -97 l-52 -85 -93 -96 -93 -96 0 -26 0 -25 -26 -31 -26 -31 -442 0
-442 0 -25 32 -24 33 -3 322 -3 321 21 34 20 33 0 50 c0 28 -9 73 -19 100 -10
28 -22 76 -26 109 l-8 58 13 8 13 8 21 -11 c12 -7 29 -18 39 -26z m141 -137
c8 -21 8 -569 0 -577 -4 -3 -15 -2 -25 4 l-19 10 0 283 c0 155 3 286 7 289 11
12 31 7 37 -9z m-424 -104 c0 -5 -4 -10 -10 -10 -5 0 -10 5 -10 10 0 6 5 10
10 10 6 0 10 -4 10 -10z" />
    <path d="M1626 1125 l-16 -16 0 -243 0 -242 13 -17 c6 -9 23 -18 36 -19 l24
-3 39 50 c21 28 52 77 69 110 69 140 79 286 21 332 -33 26 -88 51 -128 57
l-41 7 -17 -16z m133 -168 c0 -34 -7 -78 -14 -97 -7 -19 -14 -30 -15 -25 0 6
-7 -1 -15 -15 l-14 -25 -1 122 0 122 30 -10 30 -11 -1 -61z" />
    <path d="M719 364 l-13 -16 23 -19 23 -19 377 0 377 0 12 12 c16 16 15 23 -4
42 l-15 16 -383 0 -384 0 -13 -16z" />
  </g>
  <g transform="translate(0.000000,208.000000) scale(0.100000,-0.100000)" fill="#0c0c0c" stroke="none">
    <path d="M791 1858 l-54 -21 -45 -44 -44 -45 -38 17 -38 17 -50 0 -51 -1 -46
-25 c-55 -29 -92 -78 -101 -134 l-6 -40 12 -38 c15 -44 40 -83 54 -84 5 0 19
-8 30 -17 l21 -18 -20 25 c-11 14 -23 27 -27 30 -27 21 -37 138 -16 185 l12
26 63 30 63 30 51 1 51 0 38 -17 38 -17 44 45 45 44 57 22 57 21 48 0 c27 0
67 -7 90 -15 62 -22 40 0 -25 24 l-55 21 -52 -1 -52 0 -54 -21z" />
    <path d="M1490 1835 c-25 -8 -60 -28 -77 -45 l-33 -31 -22 12 c-12 6 -45 11
-74 11 l-52 0 -32 -17 -32 -16 17 -19 17 -18 34 20 33 20 54 0 c29 0 63 -5 75
-11 l22 -12 27 26 c37 33 82 54 135 61 l43 5 48 -14 c26 -8 47 -13 47 -11 0 2
-18 13 -39 24 -22 11 -63 22 -93 25 l-53 5 -45 -15z" />
    <path d="M1835 1756 l35 -67 0 -68 0 -67 -16 -47 -16 -47 -44 -49 c-24 -26
-58 -54 -75 -62 l-32 -13 19 -7 c10 -4 30 -8 43 -8 l25 -1 52 54 53 54 12 41
c7 23 16 41 21 41 10 0 11 147 1 152 -5 2 -21 28 -36 59 -16 31 -39 67 -53 80
l-25 23 36 -68z" />
    <path d="M483 1691 l-42 -19 -15 -31 c-9 -16 -16 -43 -16 -59 l0 -29 28 -24
c15 -13 21 -17 15 -9 -7 8 -13 33 -13 56 l0 42 24 23 c13 13 39 28 58 35 33
11 41 27 16 31 -7 2 -32 -6 -55 -16z" />
    <path d="M470 1489 l0 -11 -15 6 c-26 10 -16 -3 15 -19 35 -18 40 -19 40 -2 0
7 -9 18 -20 25 l-20 12 0 -11z" />
    <path d="M680 1404 c8 -8 23 -20 34 -26 l21 -11 -24 27 c-26 27 -53 37 -31 10z" />
    <path d="M450 1358 c0 -78 -43 -248 -62 -248 -4 0 -8 -9 -8 -20 0 -11 3 -20 8
-20 4 0 13 -13 20 -29 7 -16 19 -31 26 -34 l14 -5 -2 16 c0 9 -5 20 -9 23 -4
3 -11 23 -14 44 l-6 38 16 -6 15 -6 7 17 c15 40 35 157 35 207 l0 54 -20 11
-20 11 0 -53z" />
    <path d="M611 1371 l-14 -9 7 -67 c4 -37 16 -90 26 -118 11 -29 20 -70 20 -92
l0 -40 -20 -33 -21 -34 3 -334 3 -333 20 -20 20 -20 -3 334 -3 334 21 40 c25
51 25 102 0 168 -11 29 -23 84 -26 121 l-7 69 18 7 17 6 -12 15 c-14 17 -29
19 -49 6z" />
    <path d="M1520 919 l0 -401 -17 -28 c-9 -16 -30 -36 -47 -45 l-31 -16 -323 3
c-177 2 -322 2 -322 1 0 -1 13 -9 30 -18 l29 -15 316 0 316 0 29 15 c16 9 36
29 45 45 l15 29 0 401 0 400 25 0 25 0 0 15 0 15 -45 0 -45 0 0 -401z" />
    <path d="M1659 1237 l13 -17 37 0 c20 -1 60 -9 89 -19 28 -10 52 -16 52 -14 0
11 -112 54 -156 60 l-49 6 14 -16z" />
    <path d="M785 1207 c-3 -7 -4 -143 -3 -302 l3 -290 18 -3 17 -3 0 285 0 285
10 6 c6 3 10 13 10 21 l0 14 -25 0 c-14 0 -28 -6 -30 -13z" />
    <path d="M1998 1140 l37 -73 3 -87 4 -87 -16 -64 c-16 -64 -102 -249 -116
-249 -4 0 -30 -31 -58 -69 -29 -38 -76 -91 -105 -118 l-54 -49 -7 -35 c-3 -19
-20 -51 -37 -72 l-30 -37 -37 -10 -37 -11 -453 3 c-248 2 -452 2 -452 1 0 -1
13 -9 30 -18 l29 -15 451 0 451 0 33 14 c40 17 83 71 92 115 l7 33 66 66 c113
113 159 173 206 267 25 50 52 119 61 154 l16 64 -4 86 -3 87 -32 65 c-18 35
-44 75 -58 89 l-25 23 38 -73z" />
    <path d="M460 1076 c0 -28 23 -76 36 -76 16 0 19 26 4 35 -5 3 -10 17 -10 31
l0 24 -15 0 c-8 0 -15 -6 -15 -14z" />
    <path d="M1826 1033 l16 -38 -5 -55 c-9 -102 -67 -229 -146 -322 l-34 -39 11
-11 c18 -18 46 -3 84 47 74 96 128 231 128 320 l0 41 -22 44 c-13 24 -29 46
-35 48 l-13 4 16 -39z" />
    <path d="M1690 903 l1 -158 19 35 19 35 1 108 0 108 10 -6 c6 -3 10 -4 10 -1
0 3 -13 12 -30 21 l-30 16 0 -158z" />
    <path d="M430 933 c0 -7 62 -33 80 -33 l20 0 0 14 0 14 -50 4 c-28 1 -50 2
-50 1z" />
    <path d="M1510 335 l-12 -15 -375 0 -375 0 12 -15 13 -15 385 2 385 3 11 18
11 18 -15 9 c-20 13 -26 12 -40 -5z" />
  </g>
  <g transform="translate(0.000000,208.000000) scale(0.100000,-0.100000)" fill="#c56a27" stroke="none">
    <path d="M675 1410 c3 -5 8 -10 11 -10 3 0 2 5 -1 10 -3 6 -8 10 -11 10 -3 0
-2 -4 1 -10z" />
    <path d="M1104 1398 l-19 -23 23 19 c21 18 27 26 19 26 -2 0 -12 -10 -23 -22z" />
    <path d="M1579 283 l-14 -18 18 14 c16 13 21 21 13 21 -2 0 -10 -8 -17 -17z" />
  </g>
  <g transform="translate(0.000000,208.000000) scale(0.100000,-0.100000)" fill="#c46824" stroke="none" />
  <g transform="translate(0.000000,208.000000) scale(0.100000,-0.100000)" fill="#c36520" stroke="none" />
  <g transform="translate(0.000000,208.000000) scale(0.100000,-0.100000)" fill="#dca77f" stroke="none" />
  <g transform="translate(0.000000,208.000000) scale(0.100000,-0.100000)" fill="#ca773a" stroke="none" />
  <g transform="translate(0.000000,208.000000) scale(0.100000,-0.100000)" fill="#000000" stroke="none" />
  <g transform="translate(0.000000,208.000000) scale(0.100000,-0.100000)" fill="#000000" stroke="none" />
  <g transform="translate(0.000000,208.000000) scale(0.100000,-0.100000)" fill="#000000" stroke="none" />
  <g transform="translate(0.000000,208.000000) scale(0.100000,-0.100000)" fill="#000000" stroke="none" />
  <g transform="translate(0.000000,208.000000) scale(0.100000,-0.100000)" fill="#000000" stroke="none" />
  <g transform="translate(0.000000,208.000000) scale(0.100000,-0.100000)" fill="#000000" stroke="none" />
  <g transform="translate(0.000000,208.000000) scale(0.100000,-0.100000)" fill="#000000" stroke="none" />
  <g transform="translate(0.000000,208.000000) scale(0.100000,-0.100000)" fill="#0000ff" stroke="none" />
  <g transform="translate(0.000000,208.000000) scale(0.100000,-0.100000)" fill="#00ffff" stroke="none" />
  <g transform="translate(0.000000,208.000000) scale(0.100000,-0.100000)" fill="#ff00ff" stroke="none" />
  <g transform="translate(0.000000,208.000000) scale(0.100000,-0.100000)" fill="#000000" stroke="none" />
  <g transform="translate(0.000000,208.000000) scale(0.100000,-0.100000)" fill="#ffff00" stroke="none" />
  <g transform="translate(0.000000,208.000000) scale(0.100000,-0.100000)" fill="#00ff00" stroke="none" />
  <g transform="translate(0.000000,208.000000) scale(0.100000,-0.100000)" fill="#ff0000" stroke="none" />
  <g transform="translate(0.000000,208.000000) scale(0.100000,-0.100000)" fill="#c0c0c0" stroke="none" />
  <g transform="translate(0.000000,208.000000) scale(0.100000,-0.100000)" fill="#ffffff" stroke="none" />
  <g transform="translate(0.000000,208.000000) scale(0.100000,-0.100000)" fill="#000000" stroke="none" />
</svg>