<svg width="228.000000pt" height="208.000000pt" viewBox="0 0 228.000000 208.000000" xmlns="http://www.w3.org/2000/svg">
  <g transform="translate(0.000000,208.000000) scale(0.100000,-0.100000)" fill="#fefefe" stroke="none">
    <path d="M0 1040 l0 -1040 1140 0 1140 0 0 1040 0 1040 -1140 0 -1140 0 0
-1040z m1020 867 c31 -13 77 -38 103 -56 l48 -33 51 12 50 13 58 -6 58 -6 11
13 c7 8 35 24 63 36 l51 22 58 0 58 0 53 -24 c29 -14 67 -37 85 -52 17 -15 46
-54 62 -88 l31 -61 0 -57 c0 -31 -7 -77 -16 -103 l-16 -47 -44 -49 c-24 -26
-57 -54 -74 -61 -16 -7 -30 -18 -30 -24 l0 -12 73 -21 c40 -12 88 -32 107 -45
19 -13 43 -27 52 -31 25 -9 75 -82 98 -143 l20 -55 0 -67 c0 -37 -7 -95 -15
-127 -15 -62 -101 -245 -115 -245 -4 0 -30 -31 -58 -69 -29 -38 -76 -91 -105
-118 l-54 -48 -6 -34 c-10 -46 -52 -100 -93 -117 l-33 -14 -442 0 -442 0 -43
25 -42 25 -21 43 -21 43 0 307 0 307 -40 0 -41 0 -39 20 c-44 22 -74 61 -84
106 l-7 31 21 54 c11 30 25 94 32 142 l12 88 -44 42 c-24 23 -51 60 -61 82
l-19 40 0 51 0 50 26 52 c14 29 42 65 61 81 l36 30 63 17 64 17 59 -13 60 -13
38 30 c41 33 94 62 133 74 14 4 54 8 90 8 l65 1 55 -23z" />
    <path d="M781 1868 l-54 -21 -42 -42 -42 -42 -28 15 -29 15 -61 0 -61 0 -48
-26 -48 -26 -25 -36 -25 -36 -5 -53 -5 -53 20 -45 20 -45 46 -33 46 -33 0 -43
c0 -76 -43 -244 -62 -244 -4 0 -8 -13 -8 -30 0 -16 5 -30 10 -30 6 0 10 -6 10
-14 0 -8 14 -26 31 -40 l31 -26 38 0 c51 0 83 15 103 50 21 35 21 68 2 117
-22 56 -45 162 -45 208 l0 40 49 16 50 15 36 -37 c20 -21 58 -48 83 -61 l47
-23 85 1 85 1 39 17 c21 9 59 37 86 62 l47 44 36 -15 36 -15 61 0 c34 0 69 4
79 9 l17 10 59 -30 58 -29 64 0 64 0 37 16 c47 19 98 68 125 119 l21 40 1 70
0 71 -26 49 -25 50 -42 32 -42 31 -56 13 -56 13 -54 -12 -54 -11 -43 -30 -42
-30 -40 9 c-46 11 -107 4 -148 -17 l-28 -14 -44 45 -45 45 -55 20 -56 21 -62
-1 -62 0 -54 -21z m-379 -200 l-12 -12 0 -50 0 -50 23 -24 22 -25 -22 14 c-25
15 -43 50 -43 84 0 30 20 75 34 75 l10 0 -12 -12z m35 -580 l-5 -13 -1 19 c-1
11 2 17 5 13 3 -3 4 -12 1 -19z" />
    <path d="M601 1381 l-14 -9 6 -75 c4 -42 16 -100 27 -129 11 -29 20 -66 20
-81 0 -15 -9 -46 -20 -68 l-21 -40 3 -340 3 -341 28 -24 28 -24 454 0 453 0
26 31 26 31 0 25 0 26 93 96 93 96 52 85 c29 46 52 90 52 97 0 7 4 13 9 13 17
0 43 94 48 176 l6 80 -17 56 -16 57 -43 41 c-52 52 -129 89 -199 97 -29 3 -59
10 -65 16 -7 5 -13 20 -13 33 l0 24 -55 0 -55 0 0 -400 0 -401 -15 -29 c-9
-16 -29 -36 -45 -45 l-29 -15 -306 0 -306 0 -29 15 c-16 9 -36 29 -45 45 l-15
29 0 399 0 398 -33 32 c-33 32 -60 39 -86 23z m1152 -283 l39 -19 20 -46 20
-46 -5 -47 c-12 -97 -73 -228 -144 -308 l-33 -37 -15 19 -15 20 0 232 0 233
15 15 16 15 32 -6 c18 -3 49 -15 70 -25z m-259 -734 l17 -6 -12 -14 -11 -14
-374 0 -373 0 -6 10 c-3 6 -3 15 0 20 l6 10 369 0 c202 0 376 -3 384 -6z" />
    <path d="M1680 905 l0 -165 14 0 13 0 29 63 28 62 4 82 4 82 -33 20 c-19 12
-40 21 -46 21 l-13 0 0 -165z" />
    <path d="M775 1218 c-3 -7 -4 -148 -3 -313 l3 -300 35 0 35 0 0 310 0 310 -33
3 -32 3 -5 -13z" />
  </g>
  <g transform="translate(0.000000,208.000000) scale(0.100000,-0.100000)" fill="#e6e6e6" stroke="none">
    <path d="M800 1931 c-39 -12 -91 -41 -131 -72 l-36 -29 -57 12 -57 12 -67 -17
-67 -18 -35 -28 c-19 -15 -47 -52 -63 -81 l-27 -52 0 -62 0 -61 19 -40 c10
-22 37 -59 61 -81 l43 -42 -12 -79 c-6 -44 -21 -104 -32 -134 l-21 -54 6 -39
c9 -51 39 -92 86 -116 l39 -20 41 0 40 0 0 -307 0 -307 21 -43 21 -43 42 -25
43 -25 452 0 452 0 33 14 c41 17 83 71 93 117 l6 34 54 48 c29 27 76 80 105
118 28 38 54 69 58 69 14 0 100 183 115 245 8 32 15 94 15 137 l0 77 -20 55
c-23 61 -73 134 -98 143 -9 4 -33 18 -52 31 -19 13 -67 33 -108 45 l-73 21 34
18 c49 24 113 101 131 155 l16 47 0 66 0 67 -31 61 c-16 34 -45 73 -62 88 -18
15 -56 38 -86 52 l-54 25 -66 0 -66 0 -40 -17 c-22 -9 -51 -24 -65 -34 l-25
-16 -65 2 c-36 2 -80 -2 -99 -7 l-33 -10 -46 31 c-26 18 -71 42 -102 55 l-55
23 -75 -1 c-41 0 -86 -4 -100 -8z m204 -71 l54 -21 51 -49 51 -49 35 20 34 21
54 0 c29 0 63 -5 75 -11 l22 -12 27 26 c35 32 79 52 130 61 l40 6 58 -16 57
-17 43 -44 44 -43 17 -57 16 -58 -6 -39 c-13 -82 -75 -162 -148 -192 -21 -9
-61 -16 -90 -16 l-53 0 -51 24 c-28 13 -55 29 -58 35 l-7 11 -29 -15 -29 -15
-53 0 -54 0 -38 19 -37 20 -55 -50 c-29 -27 -71 -56 -91 -65 l-38 -17 -75 -1
-75 0 -47 22 c-25 13 -65 42 -88 66 l-42 43 -36 -19 c-20 -10 -44 -18 -54 -18
l-18 0 0 -52 c1 -61 11 -115 42 -211 l22 -68 -18 -33 c-20 -37 -52 -56 -96
-56 l-28 0 -31 26 c-17 14 -31 32 -31 40 0 8 -4 14 -10 14 -5 0 -10 9 -10 20
0 11 4 20 8 20 10 0 37 79 51 148 6 29 11 77 11 106 l0 53 -46 33 -46 33 -20
45 -20 45 6 44 c3 24 17 60 30 79 l24 35 47 25 46 25 51 1 50 0 38 -17 38 -17
44 45 45 44 54 21 54 21 52 0 52 1 55 -20z m-327 -512 l33 -32 0 -398 0 -399
15 -29 c9 -16 29 -36 45 -45 l29 -15 316 0 316 0 29 15 c16 9 36 29 45 45 l15
29 0 401 0 400 45 0 45 0 0 -24 c0 -13 6 -28 13 -33 6 -6 36 -13 65 -16 70 -8
147 -45 199 -97 l43 -41 16 -57 17 -56 -6 -71 c-6 -73 -33 -165 -48 -165 -5 0
-9 -6 -9 -13 0 -7 -23 -51 -52 -97 l-52 -85 -93 -96 -93 -96 0 -26 0 -25 -26
-31 -26 -31 -443 0 -444 0 -28 24 -28 24 -3 331 -3 330 21 40 c25 50 25 102 0
168 -10 28 -22 81 -26 118 l-7 67 14 9 c8 5 18 9 24 9 5 0 24 -14 42 -32z
m158 -433 l0 -300 -25 0 -25 0 -3 290 c-1 159 0 296 3 303 l5 13 22 -3 23 -3
0 -300z" />
    <path d="M434 1715 l-51 -25 -11 -26 c-15 -32 -15 -86 -1 -117 9 -21 74 -67
93 -67 16 0 3 24 -29 51 l-35 31 0 43 0 43 24 23 c13 13 39 28 58 35 33 11 41
27 16 32 -7 1 -36 -9 -64 -23z" />
    <path d="M420 1100 c0 -29 21 -70 37 -70 15 0 18 26 3 35 -5 3 -10 17 -10 31
l0 24 -15 0 -15 0 0 -20z" />
    <path d="M1626 1125 l-16 -16 0 -243 0 -242 13 -18 13 -18 19 3 c11 2 36 27
57 54 74 96 128 232 128 320 0 22 -9 59 -19 82 l-19 42 -39 19 c-21 11 -57 23
-79 26 l-41 7 -17 -16z m129 -176 l0 -74 -32 -65 -31 -65 -1 158 -1 159 33
-19 32 -19 0 -75z" />
    <path d="M720 365 l-12 -15 12 -15 13 -15 385 2 385 3 11 18 11 18 -15 9 -15
10 -381 0 -382 0 -12 -15z" />
  </g>
  <g transform="translate(0.000000,208.000000) scale(0.100000,-0.100000)" fill="#e2d4d0" stroke="none" />
  <g transform="translate(0.000000,208.000000) scale(0.100000,-0.100000)" fill="#000000" stroke="none" />
  <g transform="translate(0.000000,208.000000) scale(0.100000,-0.100000)" fill="#000000" stroke="none" />
  <g transform="translate(0.000000,208.000000) scale(0.100000,-0.100000)" fill="#000000" stroke="none" />
  <g transform="translate(0.000000,208.000000) scale(0.100000,-0.100000)" fill="#000000" stroke="none" />
  <g transform="translate(0.000000,208.000000) scale(0.100000,-0.100000)" fill="#000000" stroke="none" />
  <g transform="translate(0.000000,208.000000) scale(0.100000,-0.100000)" fill="#000000" stroke="none" />
  <g transform="translate(0.000000,208.000000) scale(0.100000,-0.100000)" fill="#000000" stroke="none" />
  <g transform="translate(0.000000,208.000000) scale(0.100000,-0.100000)" fill="#ffffff" stroke="none" />
  <g transform="translate(0.000000,208.000000) scale(0.100000,-0.100000)" fill="#00ffff" stroke="none" />
  <g transform="translate(0.000000,208.000000) scale(0.100000,-0.100000)" fill="#ff00ff" stroke="none" />
  <g transform="translate(0.000000,208.000000) scale(0.100000,-0.100000)" fill="#0000ff" stroke="none" />
  <g transform="translate(0.000000,208.000000) scale(0.100000,-0.100000)" fill="#ffff00" stroke="none" />
  <g transform="translate(0.000000,208.000000) scale(0.100000,-0.100000)" fill="#00ff00" stroke="none" />
  <g transform="translate(0.000000,208.000000) scale(0.100000,-0.100000)" fill="#ff0000" stroke="none" />
  <g transform="translate(0.000000,208.000000) scale(0.100000,-0.100000)" fill="#c0c0c0" stroke="none" />
  <g transform="translate(0.000000,208.000000) scale(0.100000,-0.100000)" fill="#808080" stroke="none" />
  <g transform="translate(0.000000,208.000000) scale(0.100000,-0.100000)" fill="#008080" stroke="none" />
  <g transform="translate(0.000000,208.000000) scale(0.100000,-0.100000)" fill="#800080" stroke="none" />
  <g transform="translate(0.000000,208.000000) scale(0.100000,-0.100000)" fill="#000080" stroke="none" />
  <g transform="translate(0.000000,208.000000) scale(0.100000,-0.100000)" fill="#808000" stroke="none" />
  <g transform="translate(0.000000,208.000000) scale(0.100000,-0.100000)" fill="#000000" stroke="none" />
  <g transform="translate(0.000000,208.000000) scale(0.100000,-0.100000)" fill="#000000" stroke="none" />
</svg>